<mxfile host="app.diagrams.net" modified="2022-06-04T13:45:58.941Z" agent="5.0 (Macintosh; Intel Mac OS X 10_15_7) AppleWebKit/605.1.15 (KHTML, like Gecko) Version/15.5 Safari/605.1.15" etag="yWxINNDW0QTUcqIC1-DY" version="18.2.0" type="github">
  <diagram id="mKH7oU2S414GMjlt5h13" name="Page-1">
    <mxGraphModel dx="1101" dy="754" grid="1" gridSize="10" guides="1" tooltips="1" connect="1" arrows="1" fold="1" page="1" pageScale="1" pageWidth="827" pageHeight="1169" math="0" shadow="0">
      <root>
        <mxCell id="0" />
        <mxCell id="1" parent="0" />
        <mxCell id="Skg29Rh2yie7JMdGAI1l-1" value="BM" style="rounded=0;whiteSpace=wrap;html=1;" vertex="1" parent="1">
          <mxGeometry x="130" y="70" width="190" height="90" as="geometry" />
        </mxCell>
        <mxCell id="Skg29Rh2yie7JMdGAI1l-2" value="GND" style="rounded=0;whiteSpace=wrap;html=1;" vertex="1" parent="1">
          <mxGeometry x="130" y="140" width="50" height="20" as="geometry" />
        </mxCell>
        <mxCell id="Skg29Rh2yie7JMdGAI1l-3" value="K1" style="rounded=0;whiteSpace=wrap;html=1;" vertex="1" parent="1">
          <mxGeometry x="180" y="140" width="50" height="20" as="geometry" />
        </mxCell>
        <mxCell id="Skg29Rh2yie7JMdGAI1l-5" value="Massoth RM" style="rounded=0;whiteSpace=wrap;html=1;" vertex="1" parent="1">
          <mxGeometry x="414" y="70" width="190" height="90" as="geometry" />
        </mxCell>
        <mxCell id="Skg29Rh2yie7JMdGAI1l-6" value="1A" style="rounded=0;whiteSpace=wrap;html=1;" vertex="1" parent="1">
          <mxGeometry x="414" y="140" width="50" height="20" as="geometry" />
        </mxCell>
        <mxCell id="Skg29Rh2yie7JMdGAI1l-7" value="1B" style="rounded=0;whiteSpace=wrap;html=1;" vertex="1" parent="1">
          <mxGeometry x="464" y="140" width="50" height="20" as="geometry" />
        </mxCell>
        <mxCell id="Skg29Rh2yie7JMdGAI1l-8" value="G" style="rounded=0;whiteSpace=wrap;html=1;" vertex="1" parent="1">
          <mxGeometry x="514" y="140" width="50" height="20" as="geometry" />
        </mxCell>
        <mxCell id="Skg29Rh2yie7JMdGAI1l-9" value="" style="endArrow=none;html=1;rounded=0;entryX=0.5;entryY=1;entryDx=0;entryDy=0;exitX=0.5;exitY=1;exitDx=0;exitDy=0;" edge="1" parent="1" source="Skg29Rh2yie7JMdGAI1l-8" target="Skg29Rh2yie7JMdGAI1l-2">
          <mxGeometry width="50" height="50" relative="1" as="geometry">
            <mxPoint x="390" y="410" as="sourcePoint" />
            <mxPoint x="440" y="360" as="targetPoint" />
            <Array as="points">
              <mxPoint x="540" y="230" />
              <mxPoint x="350" y="230" />
              <mxPoint x="155" y="230" />
            </Array>
          </mxGeometry>
        </mxCell>
        <mxCell id="Skg29Rh2yie7JMdGAI1l-10" value="" style="endArrow=none;html=1;rounded=0;entryX=0.5;entryY=1;entryDx=0;entryDy=0;exitX=0.5;exitY=1;exitDx=0;exitDy=0;" edge="1" parent="1" source="Skg29Rh2yie7JMdGAI1l-6" target="Skg29Rh2yie7JMdGAI1l-3">
          <mxGeometry width="50" height="50" relative="1" as="geometry">
            <mxPoint x="190" y="220" as="sourcePoint" />
            <mxPoint x="240" y="170" as="targetPoint" />
            <Array as="points">
              <mxPoint x="440" y="200" />
              <mxPoint x="205" y="200" />
            </Array>
          </mxGeometry>
        </mxCell>
      </root>
    </mxGraphModel>
  </diagram>
</mxfile>
